# xmcd
#
# Track frame offsets:
#	150
#	12048
#	22971
#	33969
#	44367
#	56190
#	67488
#	79686
#	94584
#	105282
#	119205
#	131703
#	144876
#
# Disc length: 2200 seconds
#
# Revision: 0
# Processed by: cddbd v1.5.2PL0 Copyright (c) Steve Scherf et al.
# Submitted via: EasyCDDAExtractor 15.3.0.1
#
DISCID=ad08960d
DTITLE=Unteerland³ - ...schon gehört?
DYEAR=1900
DGENRE=Folk-Rock
TTITLE0=Zwei Herzen a Busserl
TTITLE1=Hinter uns'rer Stadltür
TTITLE2=Maria Magdalena
TTITLE3=Der Jaga vom Karwendel
TTITLE4=Holzhacker Marsch
TTITLE5=Dengellied
TTITLE6=Kuahtuttnjodler
TTITLE7=Sag dankeschön mit roten Rosen
TTITLE8=Begvagabunden Polka
TTITLE9=Hirschbichlalm Boarischer
TTITLE10=Bring noch ein Bier
TTITLE11=Ja auf dem Mond
TTITLE12=Go FCS
EXTD=
EXTT0=
EXTT1=
EXTT2=
EXTT3=
EXTT4=
EXTT5=
EXTT6=
EXTT7=
EXTT8=
EXTT9=
EXTT10=
EXTT11=
EXTT12=
PLAYORDER=
